<svg xmlns="http://www.w3.org/2000/svg" viewBox="0 0 16 16"><defs><style>.cls-1{fill:#fff;opacity:0.6;}.cls-2{opacity:0.6;}</style></defs><g id="圖層_1" data-name="圖層 1" class="cls-2"><circle cx="8" cy="8" r="7.5" class="cls-2"/><path class="cls-1" d="M8,15.31A7.31,7.31,0,0,1,8,.69,3.66,3.66,0,0,1,8,8a3.66,3.66,0,0,0,0,7.31"/><circle class="cls-1" cx="8" cy="11.65" r="0.96"/><circle cx="8" cy="4.35" r="0.96" class="cls-2"/></g><g id="圖層_2" data-name="圖層 2" class="cls-2"><path d="M8,.75A7.25,7.25,0,1,1,.75,8,7.26,7.26,0,0,1,8,.75M8,.5A7.5,7.5,0,1,0,15.5,8,7.5,7.5,0,0,0,8,.5Z" class="cls-2"/></g></svg>