<svg id="圖層_1" data-name="圖層 1" xmlns="http://www.w3.org/2000/svg" viewBox="0 0 120 120"><defs><style>.cls-1{fill:#00b900;}.cls-2{fill:#fff;}</style></defs><g id="FULL_COLOR_ICON" data-name="FULL COLOR ICON"><rect class="cls-1" x="-0.07" y="-0.46" width="120" height="120" rx="26"/><g id="TYPE_A" data-name="TYPE A"><path class="cls-2" d="M103.43,54.27c0-19.55-19.6-35.46-43.69-35.46S16.05,34.72,16.05,54.27c0,17.52,15.54,32.2,36.54,35,1.42.3,3.36.93,3.85,2.15a8.94,8.94,0,0,1,.14,3.95s-.51,3.08-.63,3.74c-.19,1.11-.87,4.32,3.79,2.36S84.9,86.63,94.07,76.08h0c6.33-6.94,9.36-14,9.36-21.81"/><path class="cls-1" d="M50.86,44.82H47.8a.85.85,0,0,0-.85.85v19a.85.85,0,0,0,.85.84h3.06a.85.85,0,0,0,.85-.84v-19a.85.85,0,0,0-.85-.85"/><path class="cls-1" d="M72,44.82H68.89a.85.85,0,0,0-.85.85V57L59.32,45.2l-.07-.09h0l-.05-.06h0l0,0,0,0,0,0h0l0,0h0l0,0h0l0,0h-3.3a.85.85,0,0,0-.85.85v19a.85.85,0,0,0,.85.84h3.07a.85.85,0,0,0,.85-.84V53.4l8.73,11.8a1.1,1.1,0,0,0,.22.21h0l0,0,0,0,0,0h.06l.06,0h0l.22,0H72a.85.85,0,0,0,.85-.84v-19a.85.85,0,0,0-.85-.85"/><path class="cls-1" d="M43.47,60.79H35.15V45.67a.85.85,0,0,0-.85-.85H31.23a.85.85,0,0,0-.85.85v19h0a.83.83,0,0,0,.24.58v0h0a.85.85,0,0,0,.59.24H43.47a.86.86,0,0,0,.85-.86V61.64a.85.85,0,0,0-.85-.85"/><path class="cls-1" d="M88.88,49.59a.85.85,0,0,0,.85-.86V45.67a.85.85,0,0,0-.85-.85H76.64a.83.83,0,0,0-.59.24h0a.89.89,0,0,0-.23.59h0v19h0a.86.86,0,0,0,.23.58l0,0h0a.88.88,0,0,0,.59.24H88.88a.86.86,0,0,0,.85-.86V61.64a.85.85,0,0,0-.85-.85H80.55V57.57h8.33a.85.85,0,0,0,.85-.85V53.66a.85.85,0,0,0-.85-.86H80.55V49.59Z"/></g></g></svg>