<svg id="圖層_1" data-name="圖層 1" xmlns="http://www.w3.org/2000/svg" viewBox="0 0 150 150"><defs><style>.cls-1{fill:#fff;}</style></defs><path class="cls-1" d="M15,15H135V135H15ZM76.64,128.54v4.05l4-.22-.28-3.72H76.53l.17-4h7.63l.54-4h3.65l.23,3.69,3.52.38.8,4h7.35l.37,3.6h11.57l.58-3.82h7.72v4.07l3.89-.25v-3.82h4.14v-7.67l3.95-.6-.32-3.61h-7.77v-4h-4v-4.1h4v-4h7.74v-8H120.83V92.85l3.71-.54V88.55h7.81V76.85h-7.69v3.8h-4.12v-8h-4V68.59l-3.89.25v3.82h-4.11V68.59l-3.9.25v3.82l-3.8-.26-.54-3.75H92.53V64.47H80.45v-7.7H76.74l-.28,3.67-3.62.33v3.58l3.81.58v3.73l-12-.16V60.76l3.68-.31V56.74H60.92l-.7,3.65H56.84V52.84l3.59-.57V48.78H40.68c0,1.35,0,2.54,0,3.73l.12-.14-4,.21-.32-3.76H16.63l.19,3.89H28.48c.07,1.57.13,2.76.18,3.94H24.59l.25,3.9h3.82q0,4,0,8.1l-4-.15-.23-3.58-4-.77V56.6l-3.51.23V68.38h7.86v4.3l3.77-.37V68.53h4.1v4h8v3.78l3.83.56c.07,1.4.12,2.57.17,3.75H32.54V76.87H24.86V92.35h7.68v-3.8l8.1,0v4h4l0,4.12H40.61l.22,4,3.72-.28V96.53h4.07l-.26-3.88H44.53v-4h-4l.28-3.79,3.74-.58V80.53l4.1.14-.12-.11.28,3.78,3.55.56.56,3.42c3.85,1.34,3.77-1.31,3.88-3.46l3.64-.56V80.75l-3.61-.29V76.83l3.84-.5V68.55l-.11.12c1.41-.1,2.82-.2,4.22-.28v4l3.79.37-.19,3.53-3.59.59v7.46h3.57l.52-3.66,3.77-.19V84.7h7.87v3.7l-3.75.36-.35,3.6-3.85.53.3,3.53h7.56l.36-3.6,3.74-.46v-7.8h4.06l-.22-4-3.72.28v3.82l-4.23.14V80.65H72.53l.29-4.16H84.54V72.55h3.79l.56-3.84,3.76-.18v3.79l3.84.58c.07,1.39.12,2.57.17,3.75H92.59l.25,3.9h3.82l-.26,3.8-3.74.56v3.74h-4v8h-4v4H80.75l-.25,3.86H76.91l-.67-3.69H64.42v-8l4.16-.48-.21-3.59H61l-.85,4H52.67v7.84H48.84v8H56.5v3.85H48.92v19.89h15.7v-7.55l4-.54-.26-3.79H56.55l.12.12c-.1-2.75-.2-5.49-.28-8.23h4V104.5H52.55v-4h4.23c-.87-3.62.45-4.63,3.68-3.55l.32,3.47,3.74.25.22,3.6,3.67.66v3.29l-3.59.75v7.59l3.52-.2.57-3.69,3.74-.16v4.07l3.9-.25v-3.82h3.82c0-3,0-5.55,0-8.12l4.28.13v4.07h7.77l.32,3.83,3.61.31v3.58l-3.51.56-.61,3.55c-1.46.14-2.64.26-3.82.36v-8H84.8l-.42,3.54-3.54.52-.56,3.48-3.74.64c.11,1.45.2,2.63.27,3.79h-4.3l.36,3.76Zm51.92-75.87V48.61l-4,.22c.11,1.4.19,2.51.28,3.72h3.82v4l4-.22c-.11-1.4-.19-2.51-.27-3.7Zm-31.91-8H92.56V40.61l-4,.22.28,3.72h3.82v3.9l3.84.25v4h-8V48.82H80.42l.12-4.26h4.07l-.25-3.9H80.54V36.49H72.86l-.59-3.85H64.53V24.76h7.91l.3,3.67,3.63.35.49,3.86h7.38L85,36.39h15.6l-.18-2.9a21.31,21.31,0,0,1-3.74-2.32c-.38-.36-.06-1.46-.06-2.4l3.72-.34V24.66H92.56l.21-4.21h7.65V16.83H88.84v7.72h3.83v8.13l-3.79-.34-.71-3.91H80.5V20.79l-3.58-.38-.69-3.53c-3.92-1.41-3.63,1.47-3.87,3.76H60.78l-.32,3.73h-4V16.76H52.75l-.29,3.65-3.84.4.16,2.89A22.11,22.11,0,0,1,52.52,26c.38.37.06,1.46.06,2.4l-3.94.36.17,3.75h7.84V44.63l3.9-.29V32.54h4.1v3.79l3.84.57c.06,1.4.12,2.58.17,3.76H64.82v12l3.52-.21.6-3.85h3.71v4.07l3.9-.25V48.54l4,.16.34,3.85h7.82v4.22h8v7.59h4V52.55h4v3.76l4,.63v7.44h4v-8h7.7V48.83h-3.56l-.53,3.61h-3.55c-.07-.75-.08-1.39-.18-2s-.29-1.19-.42-1.73c-3.26.06-3.26.06-4.09,3.8l-3.52.17V48.83c-3,0-5.56,0-8.14,0,0-1.42.07-2.84.11-4.26h4.06l-.22-4-3.72.28Zm23.91,20V60.61l-4,.22.28,3.72h3.82v4h8v4.06l4-.22c-.11-1.4-.19-2.51-.28-3.72h-3.82c0-1.37,0-2.73,0-4.1h4.05l-.22-4-3.72.28v3.82ZM44.4,16.86H16.9V44.4H44.4ZM16.78,132.32h27.5V104.81H16.78Zm115.5-87.87V16.82H104.85V44.45ZM16.78,84.74v15.64h3.57V84.74Zm32-48v7.78l3.51-.16V36.78ZM36.38,100.49l.18-3.66h-8l.26,3.66ZM88.43,128.8H84.84v3.8l3.59-.24Z"/><path d="M120.54,108.55v4.1l.12-.11-3.79.27-.57,3.54-3.76.65c.11,1.43.2,2.61.28,3.79l-4.28-.13v-3.8h-7.69v7.68h3.8v4.07l3.9-.25v-3.82h3.9l.25-3.85h7.85v8l.11-.12h-7.72l-.58,3.82H100.79l-.37-3.6H93.07l-.8-4-3.52-.38c-.09-1.36-.16-2.52-.23-3.69l-.11.12,3.83-.37.61-3.55,3.51-.56v-3.58l-3.61-.31-.32-3.83H84.66v-4.07l-.12.11h7.78l.54-3.81,3.49-.52V88.54H92.54l.12.11V84.91l3.74-.56.26-3.8-.12.11h3.78l.6,4h7.48v4h-7.51v7.62h15.52V88.8l-3.79-.44.22-3.7h7.82l-.11-.12c.06,1.24.12,2.48.2,3.92l3.91.2-.12-.11v3.76l-3.71.54V96.5h11.46v8h-7.74l.11.12-.24-3.8h-7.57v7.8h3.81Zm-8.21,3.86v-11.5H100.8v11.5Z"/><path d="M44.66,80.64l-.17-3.75-3.83-.56V72.55l-.12.11,4.06-.28-.24-3.84H40.54l.12.12v-3.8l4-.56-.31-3.76H36.54l.12.12-.25-4.12H28.54l.12.11-.18-3.94H16.82l-.19-3.89H36.44l.32,3.76,4-.2c0,1.28,0,2.55,0,4.15h7.86v4.06l4-.22-.28-3.72H48.53V52.5H40.68V48.78H60.43v3.49l-3.59.57v7.55h3.38l.7-3.65h7.44v3.71l-3.68.31V68.5a1.5,1.5,0,0,0,.11-.13l-4.23.3c0-1.27,0-2.54,0-4.06l-4,.22.28,3.72h3.82v7.78l-3.84.5v3.63l3.61.29V84.3l-3.64.56c-.11,2.15,0,4.8-3.88,3.46l-.56-3.42-3.55-.56c-.09-1.22-.18-2.5-.28-3.78h4.06l-.22-4-3.72.28v3.82l-4.1-.14Zm4.11-12,3.66-.25V64.8H48.77Z"/><path d="M92.56,24.66h7.78v3.77l-3.72.34c0,.94-.32,2,.06,2.4a21.31,21.31,0,0,0,3.74,2.32l.18,2.9H85l-.76-3.75H76.86l-.49-3.86-3.63-.35-.3-3.67H64.53v7.88l.12-.11h-4.1l.11.12-.28-4.06-3.84.24v3.82l.11-.12H48.81l-.17-3.75,3.94-.36c0-.94.32-2-.06-2.4a22.11,22.11,0,0,0-3.74-2.33l-.16-2.89,3.84-.4.29-3.65H56.5v7.61h4l.32-3.73H72.36c.24-2.29,0-5.17,3.87-3.76l.69,3.53,3.58.38v7.64h7.67l.71,3.91,3.79.34V24.55Z"/><path d="M44.4,16.86V44.4H16.9V16.86ZM20.8,20.77V40.36H40.33V20.77Z"/><path d="M16.78,132.32V104.81h27.5v27.51Zm4-4h19.5V108.81H20.78Z"/><path d="M132.28,44.45H104.85V16.82h27.43Zm-23.51-4.14h19.5V20.82h-19.5Z"/><path d="M56.55,120.53H68.34l.26,3.79-4,.54v7.55H48.92V112.52H56.5l-.12-.11c.09,2.75.19,5.49.29,8.24H52.85v8l3.7-.33Z"/><path d="M72.65,112.54l-3.74.16-.57,3.69-3.52.2V109l3.59-.75V105l-3.67-.66c-.08-1.27-.15-2.43-.22-3.6l-.11.12H76.24l.67,3.69H80.5l-.13-.11v8.13H76.55l.11.12-.28-4.06-3.84.24v3.82Z"/><path d="M72.65,80.53l-3.77.19-.52,3.66H64.79V76.92l3.59-.59.19-3.53-3.79-.37c0-1.47,0-2.76,0-4.05,0,0-.11.13-.11.12l12,.16-.11-.12.25,4.12h7.87l-.12-.11v3.94H72.82l-.29,4.16Z"/><path d="M104.56,52.67l3.52-.17c.83-3.74.83-3.74,4.09-3.8.13.54.32,1.13.42,1.73s.11,1.26.18,2h3.55l.53-3.61h3.56v7.58h-7.7v8h-4V56.94l-4-.63V52.55Z"/><path d="M76.65,68.66V64.93l-3.81-.58V60.77l3.62-.33.28-3.67h3.71v7.7H92.53v4.18l.12-.12-3.76.18-.56,3.84H84.54l.12.11c-.08-1.25-.15-2.5-.24-4.12H76.54Z"/><path d="M104.67,52.55h-4V64.36h-4V56.77h-8V52.55l-.12.12h8c0-1.49,0-2.73,0-4a1.5,1.5,0,0,0-.11.13h8.15v3.84Z"/><path d="M52.67,100.64V92.81H60.1l.85-4h7.42l.21,3.59-4.16.48v8a1.27,1.27,0,0,1,.1-.12l-3.74-.25L60.46,97c-3.23-1.08-4.55-.07-3.68,3.55H52.55Z"/><path d="M64.53,32.64h7.74l.59,3.85h7.68v4.16l.12-.11-3.92.2-.2,3.92.12-.12H72.54l.12.12-.2-3.92-3.92-.2.12.11-.17-3.76-3.84-.57V32.53Z"/><path d="M32.54,88.55v3.8H24.86V76.87h7.68v3.78l.11-.11-3.81.24v7.88h3.81Z"/><path d="M52.55,100.53v4h7.82v7.92h-4l.12.11v-3.85H48.84v-8h3.83Z"/><path d="M44.55,80.53v3.75l-3.74.58-.28,3.79.11-.12-8.1,0,.11.11V80.54l-.11.11H44.66Z"/><path d="M124.66,80.66V76.85h7.69v11.7h-7.81l.12.11V84.54l-.11.12,4-.28-.24-3.84h-3.81Z"/><path d="M84.53,84.56v7.8l-3.74.46-.36,3.6H72.87l-.3-3.53,3.85-.53.35-3.6,3.75-.36V84.7a1.5,1.5,0,0,0-.11.13l4.24-.16Z"/><path d="M76.82,124.79l-.28-3.8,3.74-.64.56-3.48,3.54-.52.42-3.54h3.62v8a1.27,1.27,0,0,1,.1-.12H84.87l-.54,4H76.7Z"/><path d="M92.67,24.55H88.84V16.83h11.58v3.62H92.77c-.08,1.66-.15,2.94-.21,4.21Z"/><path d="M16.78,84.74h3.57v15.64H16.78Z"/><path d="M72.65,48.54H68.94l-.6,3.85-3.52.21v-12h3.84l-.12-.11.2,3.91,3.92.21-.12-.12v4.12Z"/><path d="M124.55,116.66h7.77l.32,3.61-3.95.6v7.67h-4.14l.11.12V116.54Z"/><path d="M24.79,68.38H16.92V56.83l3.51-.23v7.55l4,.77c.08,1.23.16,2.4.23,3.58Z"/><path d="M92.53,68.65h7.78l.54,3.75,3.8.26-.11-.12v4.12l.12-.12H96.54l.12.11-.17-3.75-3.84-.58V68.53Z"/><path d="M108.55,72.66h4.11l-.11-.12v7.81h-7.89V76.54l-.12.12,3.92-.2.2-3.92Z"/><path d="M60.55,32.54v11.8l-3.9.29V32.54l-.11.12h4.12Z"/><path d="M28.67,68.65v-8.1l-.12.11h8.12l-.12-.12v3.78l-4,.6v3.74l.11-.12h-4.1Z"/><path d="M88.66,96.65v-8h4l-.12-.11v8h-4Z"/><path d="M48.81,36.78h3.51V44.4l-3.51.16Z"/><path d="M40.66,72.55h-8v-4l-.11.12h8.12l-.12-.12v4.12Z"/><path d="M36.38,100.49H28.85l-.26-3.66h8Z"/><path d="M72.53,80.65h7.89c0,1.62,0,2.89,0,4.17,0,0,.11-.13.11-.12H72.65V80.53Z"/><path d="M128.65,68.53h-8v-4l-.11.12h8.09l-.11-.11c0,1.36,0,2.72,0,4.09Z"/><path d="M116.55,72.66h4v8l.12-.12h-4v-8Z"/><path d="M88.67,52.55H80.85c-.12-1.35-.23-2.6-.33-3.85a1.31,1.31,0,0,0-.11.12h8.14v3.85Z"/><path d="M80.54,44.55c0,1.42-.08,2.84-.13,4.27a1.31,1.31,0,0,1,.11-.12l-4-.16.11.12V44.54l-.12.12h4.12Z"/><path d="M96.53,44.55c0,1.42-.07,2.84-.12,4.27,0,0,.11-.13.11-.12l-3.85-.25v-3.9l-.11.12h4.09Z"/><path d="M76.55,48.54v3.82l-3.9.25V48.54l-.11.12h4.12Z"/><path d="M128.53,68.65h3.82c.09,1.21.17,2.32.28,3.72l-4,.22V68.53Z"/><path d="M96.66,80.55H92.84l-.25-3.9h4.07l-.12-.11v4.12Z"/><path d="M112.66,72.66V68.84l3.89-.25v4.07l.11-.12h-4.11Z"/><path d="M104.65,72.66V68.84l3.9-.25v4.07l.11-.12h-4.12Z"/><path d="M84.65,84.67V80.85l3.72-.28.22,4H84.53Z"/><path d="M120.54,80.66h4.12l-.11-.12v4.12l.11-.12h-4.11l.11.12V80.54Z"/><path d="M40.53,88.65h4v4l.11-.12h-4v-4Z"/><path d="M44.53,92.65h3.83l.26,3.88H44.55l.12.11,0-4.11Z"/><path d="M44.55,96.53v3.82l-3.72.28-.22-4h4.06Z"/><path d="M84.66,100.65v-4h4l-.12-.11v4h-4Z"/><path d="M28.55,68.53v3.79l-3.77.37c0-1.58,0-2.94,0-4.31l-.11.12,4,.15Z"/><path d="M84.66,104.55l-4.28-.14.12.11c.07-1.17.15-2.33.25-3.87h3.91l-.12-.11v4.12Z"/><path d="M128.65,64.67V60.85l3.72-.28.22,4h-4.05Z"/><path d="M124.55,104.54v4h-4l.12.11v-4h4Z"/><path d="M120.67,64.55h-3.82l-.28-3.72,4-.22v4.06Z"/><path d="M76.55,112.54v3.82l-3.9.25v-4.07l-.11.12h4.12Z"/><path d="M28.66,60.55H24.84l-.25-3.9h4.07l-.12-.11v4.12Z"/><path d="M120.54,112.65h4v4l.11-.12h-4v-4Z"/><path d="M128.56,52.67h3.8c.08,1.19.16,2.3.27,3.7l-4,.22v-4Z"/><path d="M80.54,40.65h3.82l.25,3.9H80.54l.12.11V40.54Z"/><path d="M92.67,44.55H88.85l-.28-3.72,4-.22v4.06Z"/><path d="M128.67,52.55h-3.82c-.09-1.21-.17-2.32-.28-3.72l4-.22v4.06Z"/><path d="M76.64,128.54H72.87l-.36-3.76h4.31l-.12-.11c0,1.33-.11,2.65-.17,4Z"/><path d="M76.53,128.65h3.82l.28,3.72-4,.22v-4.05Z"/><path d="M88.43,128.8v3.56l-3.59.24v-3.8Z"/><path d="M96.65,44.67V40.85l3.72-.28.22,4H96.53Z"/><path d="M124.55,128.54v3.82l-3.89.25v-4.07l-.11.12h4.11Z"/><path class="cls-1" d="M120.66,80.54v4.12h-7.82l-.22,3.7,3.79.44v7.49H100.89V88.67h7.51v-4h-7.48l-.6-4H96.54V76.54h8.12v3.81h7.89V72.54h4.11v8Z"/><path class="cls-1" d="M112.33,112.41H100.8v-11.5h11.53Zm-7.74-7.64.25,3.66h3.56v-3.66Z"/><path class="cls-1" d="M84.54,104.66v-4.12h4v-4h4v-8h3.81v11.79l-3.49.52-.54,3.81Z"/><path class="cls-1" d="M124.66,128.66h-4.11v-8H112.7l.13.11-.29-3.79,3.76-.65.57-3.54,3.79-.27v4h4Z"/><path class="cls-1" d="M124.66,104.66h-4v4h-3.81v-7.8h7.57Z"/><path class="cls-1" d="M104.65,124.54h-3.8v-7.68h7.69v3.8l.12-.11-3.91.2-.21,3.91Z"/><path class="cls-1" d="M120.55,84.54h4.11v4.12l-3.91-.2C120.67,87,120.61,85.78,120.55,84.54Z"/><path class="cls-1" d="M108.54,120.66l4.28.13-.12-.11c-.07,1.17-.15,2.33-.25,3.86h-3.9l.11.12v-4.11Z"/><path class="cls-1" d="M108.55,124.54v3.82l-3.9.25v-4.07l-.11.12h4.12Z"/><path class="cls-1" d="M40.66,68.66H32.54V64.92l4-.6V60.54h7.78l.31,3.76-4,.56Z"/><path class="cls-1" d="M28.54,60.66V56.54h7.87l.25,4.12Z"/><path class="cls-1" d="M48.64,56.53H40.78c0-1.6,0-2.87,0-4.15a1.2,1.2,0,0,0-.11.12h7.85v4.15Z"/><path class="cls-1" d="M48.65,80.67V76.85l3.72-.28.22,4H48.53Z"/><path class="cls-1" d="M48.77,68.61V64.8h3.66v3.56Z"/><path class="cls-1" d="M40.54,72.66V68.54h3.82l.24,3.84Z"/><path class="cls-1" d="M60.67,68.55H56.85l-.28-3.72,4-.22c0,1.52,0,2.79,0,4.06Z"/><path class="cls-1" d="M48.53,56.65h3.82l.28,3.72-4,.22V56.53Z"/><path class="cls-1" d="M60.66,32.66H56.54V28.84l3.84-.24Z"/><path class="cls-1" d="M20.8,20.77H40.33V40.36H20.8ZM36.39,36.42V24.85H24.88V36.42Z"/><path class="cls-1" d="M20.78,128.32V108.81h19.5v19.51Zm4-15.54v11.57H36.32V112.78Z"/><path class="cls-1" d="M108.77,40.31V20.82h19.5V40.31Zm4-4h11.51V24.79H112.8Z"/><path class="cls-1" d="M56.55,120.53v7.79l-3.7.33v-8h3.82Z"/><path class="cls-1" d="M76.66,112.66H72.54v-3.82l3.84-.24Z"/><path class="cls-1" d="M76.54,68.54h7.88c.09,1.62.16,2.87.24,4.12H76.79Z"/><path class="cls-1" d="M76.66,48.66H72.54V44.54h4.12Z"/><path class="cls-1" d="M72.66,44.66l-3.92-.21-.2-3.91,3.92.2Z"/><path class="cls-1" d="M80.66,40.54v4.12H76.54l.2-3.92Z"/><path class="cls-1" d="M32.65,80.54v8.12H28.84V80.78Z"/><path class="cls-1" d="M124.55,84.66V80.54h3.81l.24,3.84Z"/><path class="cls-1" d="M104.54,72.54h4.12l-.2,3.92-3.92.2Z"/><path d="M104.59,104.77h3.81v3.66h-3.56Z"/><path d="M108.66,124.66h-4.12l.21-3.91,3.91-.2Z"/><path d="M36.39,36.42H24.88V24.85H36.39Z"/><path d="M24.81,112.78H36.32v11.57H24.81Z"/><path d="M112.8,36.34V24.79h11.51V36.34Z"/></svg>