<?xml version="1.0" encoding="UTF-8" standalone="yes"?>
<!DOCTYPE svg PUBLIC "-//W3C//DTD SVG 1.0//EN" "http://www.w3.org/TR/2001/REC-SVG-20010904/DTD/svg10.dtd">
<svg width="330" height="330" xmlns="http://www.w3.org/2000/svg" xmlns:xlink="http://www.w3.org/1999/xlink">
<g id="quickmark" fill="black" transform="translate(40,40)">
<rect x="0" y="0" width="10" height="10"/>
<rect x="10" y="0" width="10" height="10"/>
<rect x="20" y="0" width="10" height="10"/>
<rect x="30" y="0" width="10" height="10"/>
<rect x="40" y="0" width="10" height="10"/>
<rect x="50" y="0" width="10" height="10"/>
<rect x="60" y="0" width="10" height="10"/>
<rect x="100" y="0" width="10" height="10"/>
<rect x="110" y="0" width="10" height="10"/>
<rect x="140" y="0" width="10" height="10"/>
<rect x="150" y="0" width="10" height="10"/>
<rect x="180" y="0" width="10" height="10"/>
<rect x="190" y="0" width="10" height="10"/>
<rect x="200" y="0" width="10" height="10"/>
<rect x="210" y="0" width="10" height="10"/>
<rect x="220" y="0" width="10" height="10"/>
<rect x="230" y="0" width="10" height="10"/>
<rect x="240" y="0" width="10" height="10"/>
<rect x="0" y="10" width="10" height="10"/>
<rect x="60" y="10" width="10" height="10"/>
<rect x="100" y="10" width="10" height="10"/>
<rect x="110" y="10" width="10" height="10"/>
<rect x="130" y="10" width="10" height="10"/>
<rect x="150" y="10" width="10" height="10"/>
<rect x="180" y="10" width="10" height="10"/>
<rect x="240" y="10" width="10" height="10"/>
<rect x="0" y="20" width="10" height="10"/>
<rect x="20" y="20" width="10" height="10"/>
<rect x="30" y="20" width="10" height="10"/>
<rect x="40" y="20" width="10" height="10"/>
<rect x="60" y="20" width="10" height="10"/>
<rect x="90" y="20" width="10" height="10"/>
<rect x="110" y="20" width="10" height="10"/>
<rect x="120" y="20" width="10" height="10"/>
<rect x="140" y="20" width="10" height="10"/>
<rect x="160" y="20" width="10" height="10"/>
<rect x="180" y="20" width="10" height="10"/>
<rect x="200" y="20" width="10" height="10"/>
<rect x="210" y="20" width="10" height="10"/>
<rect x="220" y="20" width="10" height="10"/>
<rect x="240" y="20" width="10" height="10"/>
<rect x="0" y="30" width="10" height="10"/>
<rect x="20" y="30" width="10" height="10"/>
<rect x="30" y="30" width="10" height="10"/>
<rect x="40" y="30" width="10" height="10"/>
<rect x="60" y="30" width="10" height="10"/>
<rect x="100" y="30" width="10" height="10"/>
<rect x="110" y="30" width="10" height="10"/>
<rect x="140" y="30" width="10" height="10"/>
<rect x="180" y="30" width="10" height="10"/>
<rect x="200" y="30" width="10" height="10"/>
<rect x="210" y="30" width="10" height="10"/>
<rect x="220" y="30" width="10" height="10"/>
<rect x="240" y="30" width="10" height="10"/>
<rect x="0" y="40" width="10" height="10"/>
<rect x="20" y="40" width="10" height="10"/>
<rect x="30" y="40" width="10" height="10"/>
<rect x="40" y="40" width="10" height="10"/>
<rect x="60" y="40" width="10" height="10"/>
<rect x="90" y="40" width="10" height="10"/>
<rect x="120" y="40" width="10" height="10"/>
<rect x="140" y="40" width="10" height="10"/>
<rect x="150" y="40" width="10" height="10"/>
<rect x="160" y="40" width="10" height="10"/>
<rect x="180" y="40" width="10" height="10"/>
<rect x="200" y="40" width="10" height="10"/>
<rect x="210" y="40" width="10" height="10"/>
<rect x="220" y="40" width="10" height="10"/>
<rect x="240" y="40" width="10" height="10"/>
<rect x="0" y="50" width="10" height="10"/>
<rect x="60" y="50" width="10" height="10"/>
<rect x="80" y="50" width="10" height="10"/>
<rect x="100" y="50" width="10" height="10"/>
<rect x="120" y="50" width="10" height="10"/>
<rect x="130" y="50" width="10" height="10"/>
<rect x="140" y="50" width="10" height="10"/>
<rect x="150" y="50" width="10" height="10"/>
<rect x="180" y="50" width="10" height="10"/>
<rect x="240" y="50" width="10" height="10"/>
<rect x="0" y="60" width="10" height="10"/>
<rect x="10" y="60" width="10" height="10"/>
<rect x="20" y="60" width="10" height="10"/>
<rect x="30" y="60" width="10" height="10"/>
<rect x="40" y="60" width="10" height="10"/>
<rect x="50" y="60" width="10" height="10"/>
<rect x="60" y="60" width="10" height="10"/>
<rect x="80" y="60" width="10" height="10"/>
<rect x="100" y="60" width="10" height="10"/>
<rect x="120" y="60" width="10" height="10"/>
<rect x="140" y="60" width="10" height="10"/>
<rect x="160" y="60" width="10" height="10"/>
<rect x="180" y="60" width="10" height="10"/>
<rect x="190" y="60" width="10" height="10"/>
<rect x="200" y="60" width="10" height="10"/>
<rect x="210" y="60" width="10" height="10"/>
<rect x="220" y="60" width="10" height="10"/>
<rect x="230" y="60" width="10" height="10"/>
<rect x="240" y="60" width="10" height="10"/>
<rect x="100" y="70" width="10" height="10"/>
<rect x="160" y="70" width="10" height="10"/>
<rect x="0" y="80" width="10" height="10"/>
<rect x="30" y="80" width="10" height="10"/>
<rect x="50" y="80" width="10" height="10"/>
<rect x="60" y="80" width="10" height="10"/>
<rect x="80" y="80" width="10" height="10"/>
<rect x="100" y="80" width="10" height="10"/>
<rect x="120" y="80" width="10" height="10"/>
<rect x="130" y="80" width="10" height="10"/>
<rect x="140" y="80" width="10" height="10"/>
<rect x="150" y="80" width="10" height="10"/>
<rect x="160" y="80" width="10" height="10"/>
<rect x="170" y="80" width="10" height="10"/>
<rect x="190" y="80" width="10" height="10"/>
<rect x="0" y="90" width="10" height="10"/>
<rect x="20" y="90" width="10" height="10"/>
<rect x="30" y="90" width="10" height="10"/>
<rect x="50" y="90" width="10" height="10"/>
<rect x="70" y="90" width="10" height="10"/>
<rect x="80" y="90" width="10" height="10"/>
<rect x="100" y="90" width="10" height="10"/>
<rect x="160" y="90" width="10" height="10"/>
<rect x="170" y="90" width="10" height="10"/>
<rect x="180" y="90" width="10" height="10"/>
<rect x="190" y="90" width="10" height="10"/>
<rect x="240" y="90" width="10" height="10"/>
<rect x="0" y="100" width="10" height="10"/>
<rect x="20" y="100" width="10" height="10"/>
<rect x="50" y="100" width="10" height="10"/>
<rect x="60" y="100" width="10" height="10"/>
<rect x="70" y="100" width="10" height="10"/>
<rect x="80" y="100" width="10" height="10"/>
<rect x="120" y="100" width="10" height="10"/>
<rect x="130" y="100" width="10" height="10"/>
<rect x="140" y="100" width="10" height="10"/>
<rect x="160" y="100" width="10" height="10"/>
<rect x="170" y="100" width="10" height="10"/>
<rect x="190" y="100" width="10" height="10"/>
<rect x="200" y="100" width="10" height="10"/>
<rect x="230" y="100" width="10" height="10"/>
<rect x="240" y="100" width="10" height="10"/>
<rect x="0" y="110" width="10" height="10"/>
<rect x="20" y="110" width="10" height="10"/>
<rect x="40" y="110" width="10" height="10"/>
<rect x="80" y="110" width="10" height="10"/>
<rect x="100" y="110" width="10" height="10"/>
<rect x="130" y="110" width="10" height="10"/>
<rect x="150" y="110" width="10" height="10"/>
<rect x="160" y="110" width="10" height="10"/>
<rect x="180" y="110" width="10" height="10"/>
<rect x="200" y="110" width="10" height="10"/>
<rect x="10" y="120" width="10" height="10"/>
<rect x="20" y="120" width="10" height="10"/>
<rect x="30" y="120" width="10" height="10"/>
<rect x="40" y="120" width="10" height="10"/>
<rect x="50" y="120" width="10" height="10"/>
<rect x="60" y="120" width="10" height="10"/>
<rect x="120" y="120" width="10" height="10"/>
<rect x="130" y="120" width="10" height="10"/>
<rect x="170" y="120" width="10" height="10"/>
<rect x="180" y="120" width="10" height="10"/>
<rect x="190" y="120" width="10" height="10"/>
<rect x="210" y="120" width="10" height="10"/>
<rect x="230" y="120" width="10" height="10"/>
<rect x="240" y="120" width="10" height="10"/>
<rect x="30" y="130" width="10" height="10"/>
<rect x="40" y="130" width="10" height="10"/>
<rect x="80" y="130" width="10" height="10"/>
<rect x="90" y="130" width="10" height="10"/>
<rect x="100" y="130" width="10" height="10"/>
<rect x="110" y="130" width="10" height="10"/>
<rect x="130" y="130" width="10" height="10"/>
<rect x="170" y="130" width="10" height="10"/>
<rect x="180" y="130" width="10" height="10"/>
<rect x="190" y="130" width="10" height="10"/>
<rect x="210" y="130" width="10" height="10"/>
<rect x="220" y="130" width="10" height="10"/>
<rect x="240" y="130" width="10" height="10"/>
<rect x="10" y="140" width="10" height="10"/>
<rect x="30" y="140" width="10" height="10"/>
<rect x="40" y="140" width="10" height="10"/>
<rect x="60" y="140" width="10" height="10"/>
<rect x="70" y="140" width="10" height="10"/>
<rect x="80" y="140" width="10" height="10"/>
<rect x="110" y="140" width="10" height="10"/>
<rect x="130" y="140" width="10" height="10"/>
<rect x="140" y="140" width="10" height="10"/>
<rect x="190" y="140" width="10" height="10"/>
<rect x="200" y="140" width="10" height="10"/>
<rect x="220" y="140" width="10" height="10"/>
<rect x="240" y="140" width="10" height="10"/>
<rect x="0" y="150" width="10" height="10"/>
<rect x="20" y="150" width="10" height="10"/>
<rect x="30" y="150" width="10" height="10"/>
<rect x="50" y="150" width="10" height="10"/>
<rect x="80" y="150" width="10" height="10"/>
<rect x="120" y="150" width="10" height="10"/>
<rect x="130" y="150" width="10" height="10"/>
<rect x="160" y="150" width="10" height="10"/>
<rect x="200" y="150" width="10" height="10"/>
<rect x="230" y="150" width="10" height="10"/>
<rect x="50" y="160" width="10" height="10"/>
<rect x="60" y="160" width="10" height="10"/>
<rect x="70" y="160" width="10" height="10"/>
<rect x="90" y="160" width="10" height="10"/>
<rect x="120" y="160" width="10" height="10"/>
<rect x="160" y="160" width="10" height="10"/>
<rect x="170" y="160" width="10" height="10"/>
<rect x="180" y="160" width="10" height="10"/>
<rect x="190" y="160" width="10" height="10"/>
<rect x="200" y="160" width="10" height="10"/>
<rect x="210" y="160" width="10" height="10"/>
<rect x="220" y="160" width="10" height="10"/>
<rect x="80" y="170" width="10" height="10"/>
<rect x="90" y="170" width="10" height="10"/>
<rect x="100" y="170" width="10" height="10"/>
<rect x="110" y="170" width="10" height="10"/>
<rect x="120" y="170" width="10" height="10"/>
<rect x="130" y="170" width="10" height="10"/>
<rect x="140" y="170" width="10" height="10"/>
<rect x="160" y="170" width="10" height="10"/>
<rect x="200" y="170" width="10" height="10"/>
<rect x="210" y="170" width="10" height="10"/>
<rect x="240" y="170" width="10" height="10"/>
<rect x="0" y="180" width="10" height="10"/>
<rect x="10" y="180" width="10" height="10"/>
<rect x="20" y="180" width="10" height="10"/>
<rect x="30" y="180" width="10" height="10"/>
<rect x="40" y="180" width="10" height="10"/>
<rect x="50" y="180" width="10" height="10"/>
<rect x="60" y="180" width="10" height="10"/>
<rect x="90" y="180" width="10" height="10"/>
<rect x="120" y="180" width="10" height="10"/>
<rect x="130" y="180" width="10" height="10"/>
<rect x="150" y="180" width="10" height="10"/>
<rect x="160" y="180" width="10" height="10"/>
<rect x="180" y="180" width="10" height="10"/>
<rect x="200" y="180" width="10" height="10"/>
<rect x="210" y="180" width="10" height="10"/>
<rect x="230" y="180" width="10" height="10"/>
<rect x="240" y="180" width="10" height="10"/>
<rect x="0" y="190" width="10" height="10"/>
<rect x="60" y="190" width="10" height="10"/>
<rect x="80" y="190" width="10" height="10"/>
<rect x="100" y="190" width="10" height="10"/>
<rect x="120" y="190" width="10" height="10"/>
<rect x="140" y="190" width="10" height="10"/>
<rect x="160" y="190" width="10" height="10"/>
<rect x="200" y="190" width="10" height="10"/>
<rect x="210" y="190" width="10" height="10"/>
<rect x="220" y="190" width="10" height="10"/>
<rect x="230" y="190" width="10" height="10"/>
<rect x="240" y="190" width="10" height="10"/>
<rect x="0" y="200" width="10" height="10"/>
<rect x="20" y="200" width="10" height="10"/>
<rect x="30" y="200" width="10" height="10"/>
<rect x="40" y="200" width="10" height="10"/>
<rect x="60" y="200" width="10" height="10"/>
<rect x="90" y="200" width="10" height="10"/>
<rect x="100" y="200" width="10" height="10"/>
<rect x="120" y="200" width="10" height="10"/>
<rect x="130" y="200" width="10" height="10"/>
<rect x="140" y="200" width="10" height="10"/>
<rect x="160" y="200" width="10" height="10"/>
<rect x="170" y="200" width="10" height="10"/>
<rect x="180" y="200" width="10" height="10"/>
<rect x="190" y="200" width="10" height="10"/>
<rect x="200" y="200" width="10" height="10"/>
<rect x="210" y="200" width="10" height="10"/>
<rect x="230" y="200" width="10" height="10"/>
<rect x="0" y="210" width="10" height="10"/>
<rect x="20" y="210" width="10" height="10"/>
<rect x="30" y="210" width="10" height="10"/>
<rect x="40" y="210" width="10" height="10"/>
<rect x="60" y="210" width="10" height="10"/>
<rect x="80" y="210" width="10" height="10"/>
<rect x="90" y="210" width="10" height="10"/>
<rect x="100" y="210" width="10" height="10"/>
<rect x="120" y="210" width="10" height="10"/>
<rect x="160" y="210" width="10" height="10"/>
<rect x="190" y="210" width="10" height="10"/>
<rect x="200" y="210" width="10" height="10"/>
<rect x="210" y="210" width="10" height="10"/>
<rect x="220" y="210" width="10" height="10"/>
<rect x="0" y="220" width="10" height="10"/>
<rect x="20" y="220" width="10" height="10"/>
<rect x="30" y="220" width="10" height="10"/>
<rect x="40" y="220" width="10" height="10"/>
<rect x="60" y="220" width="10" height="10"/>
<rect x="90" y="220" width="10" height="10"/>
<rect x="130" y="220" width="10" height="10"/>
<rect x="150" y="220" width="10" height="10"/>
<rect x="160" y="220" width="10" height="10"/>
<rect x="190" y="220" width="10" height="10"/>
<rect x="200" y="220" width="10" height="10"/>
<rect x="220" y="220" width="10" height="10"/>
<rect x="240" y="220" width="10" height="10"/>
<rect x="0" y="230" width="10" height="10"/>
<rect x="60" y="230" width="10" height="10"/>
<rect x="90" y="230" width="10" height="10"/>
<rect x="120" y="230" width="10" height="10"/>
<rect x="130" y="230" width="10" height="10"/>
<rect x="140" y="230" width="10" height="10"/>
<rect x="150" y="230" width="10" height="10"/>
<rect x="160" y="230" width="10" height="10"/>
<rect x="170" y="230" width="10" height="10"/>
<rect x="210" y="230" width="10" height="10"/>
<rect x="0" y="240" width="10" height="10"/>
<rect x="10" y="240" width="10" height="10"/>
<rect x="20" y="240" width="10" height="10"/>
<rect x="30" y="240" width="10" height="10"/>
<rect x="40" y="240" width="10" height="10"/>
<rect x="50" y="240" width="10" height="10"/>
<rect x="60" y="240" width="10" height="10"/>
<rect x="80" y="240" width="10" height="10"/>
<rect x="90" y="240" width="10" height="10"/>
<rect x="130" y="240" width="10" height="10"/>
<rect x="160" y="240" width="10" height="10"/>
<rect x="170" y="240" width="10" height="10"/>
<rect x="180" y="240" width="10" height="10"/>
<rect x="190" y="240" width="10" height="10"/>
<rect x="230" y="240" width="10" height="10"/>
<rect x="240" y="240" width="10" height="10"/>
</g></svg>